<?xml version="1.0" encoding="UTF-8" standalone="no"?>
<svg
   xmlns:dc="http://purl.org/dc/elements/1.1/"
   xmlns:cc="http://creativecommons.org/ns#"
   xmlns:rdf="http://www.w3.org/1999/02/22-rdf-syntax-ns#"
   xmlns:svg="http://www.w3.org/2000/svg"
   xmlns="http://www.w3.org/2000/svg"
   xmlns:sodipodi="http://sodipodi.sourceforge.net/DTD/sodipodi-0.dtd"
   xmlns:inkscape="http://www.inkscape.org/namespaces/inkscape"
   inkscape:version="1.0 (4035a4f, 2020-05-01)"
   sodipodi:docname="Duck.svg"
   viewBox="0 0 793.70667 793.70667"
   height="793.70667"
   width="793.70667"
   xml:space="preserve"
   id="svg833"
   version="1.1"><metadata
     id="metadata839"><rdf:RDF><cc:Work
         rdf:about=""><dc:format>image/svg+xml</dc:format><dc:type
           rdf:resource="http://purl.org/dc/dcmitype/StillImage" /><dc:title></dc:title></cc:Work></rdf:RDF></metadata><defs
     id="defs837" /><sodipodi:namedview
     inkscape:current-layer="g841"
     inkscape:window-maximized="1"
     inkscape:window-y="23"
     inkscape:window-x="0"
     inkscape:cy="396.85333"
     inkscape:cx="396.85333"
     inkscape:zoom="0.82776173"
     showgrid="false"
     id="namedview835"
     inkscape:window-height="1008"
     inkscape:window-width="1920"
     inkscape:pageshadow="2"
     inkscape:pageopacity="0"
     guidetolerance="10"
     gridtolerance="10"
     objecttolerance="10"
     borderopacity="1"
     bordercolor="#666666"
     pagecolor="#ffffff" /><g
     transform="matrix(1.3333333,0,0,-1.3333333,0,793.70667)"
     inkscape:label="ink_ext_XXXXXX"
     inkscape:groupmode="layer"
     id="g841"><path
       d="m 296.863,388.879 c 14.17839,22.83329 -20.00227,60.82074 -40.58054,36.43815 -14.71992,-17.37715 4.126,-39.94276 20.6914,-47.25112 14.62839,-2.75894 -21.24457,-1.61858 -22.08373,10.35666 -15.80999,18.69231 0.13929,55.06256 26.20412,47.36558 15.58915,-7.79415 25.9153,-31.16226 15.76875,-46.90927 z"
       style="fill:none;fill-opacity:1;fill-rule:nonzero;stroke:#000000;stroke-width:0.1;stroke-opacity:1"
       id="path911" /><path
       d="m 248.223,446.526 c 0.65089,-8.77892 19.32013,-19.60447 0.81854,-10.71439 -2.48991,2.66145 -4.52737,8.11329 -0.81854,10.71439 z"
       style="fill:none;fill-opacity:1;fill-rule:nonzero;stroke:#000000;stroke-width:0.1;stroke-opacity:1"
       id="path913" /><path
       d="m 242.166,437.776 c 6.06261,-5.30668 14.32328,-15.20888 1.02837,-7.77288 -1.66044,1.70019 -3.75952,5.81028 -1.02837,7.77288 z"
       style="fill:none;fill-opacity:1;fill-rule:nonzero;stroke:#000000;stroke-width:0.1;stroke-opacity:1"
       id="path915" /><path
       d="m 255.387,442.533 c 17.78071,-9.18704 -1.11075,-14.6119 0,0 z"
       style="fill:none;fill-opacity:1;fill-rule:nonzero;stroke:#000000;stroke-width:0.1;stroke-opacity:1"
       id="path917" /><path
       d="m 261.998,451.612 c 3.95719,13.15005 35.68553,7.48518 9.38554,3.51338 -2.86714,-1.68359 -5.87031,-3.72334 -9.38554,-3.51338 z"
       style="fill:none;fill-opacity:1;fill-rule:nonzero;stroke:#000000;stroke-width:0.1;stroke-opacity:1"
       id="path919" /><path
       d="m 264.021,381.297 c -19.27435,22.14446 -53.23457,-13.73342 -19.21482,-23.20456 22.62671,-16.47892 39.12698,-39.49861 57.82677,-59.83817 22.3837,-16.72458 52.04962,7.7161 52.45854,32.21045 7.36245,17.49701 -1.19503,-17.04388 -6.27897,-21.77296 -12.25329,-30.02953 -53.0561,-19.01133 -65.0607,5.45578 -11.58562,25.98913 -42.92723,32.88338 -55.25382,55.97405 -6.40422,25.91343 22.13588,19.63096 35.523,11.17541 z"
       style="fill:none;fill-opacity:1;fill-rule:nonzero;stroke:#000000;stroke-width:0.1;stroke-opacity:1"
       id="path921" /><path
       d="m 259.548,360.731 c -14.57521,-4.69611 -11.15756,14.42857 0.84785,2.16356 30.5435,-15.87064 66.52437,-24.76889 100.62099,-16.42346 19.37398,11.19163 45.80663,25.74348 43.60867,51.80282 -4.44435,18.7473 10.70044,-18.09348 -3.28011,-22.69332 -15.19842,-17.18485 -33.62706,-35.29635 -58.19597,-35.56392 -30.80632,-1.5275 -61.02201,8.28361 -87.88627,22.72425 -10.33369,3.46635 0.91181,-1.53905 4.28484,-2.00993 z"
       style="fill:none;fill-opacity:1;fill-rule:nonzero;stroke:#000000;stroke-width:0.1;stroke-opacity:1"
       id="path923" /><path
       d="m 247.045,365.786 c 9.85512,4.86278 9.98472,-10.38062 0,0 z"
       style="fill:none;fill-opacity:1;fill-rule:nonzero;stroke:#000000;stroke-width:0.1;stroke-opacity:1"
       id="path925" /><path
       d="m 246.525,365.901 c 13.48045,3.17369 11.96966,-11.10428 0,0 z"
       style="fill:none;fill-opacity:1;fill-rule:nonzero;stroke:#000000;stroke-width:0.1;stroke-opacity:1"
       id="path927" /><path
       d="m 291.617,382.947 c -0.95959,21.6944 43.83677,30.56081 44.79544,7.92687 -8.34988,27.96272 -34.07773,4.01246 -44.79544,-7.92687 z"
       style="fill:none;fill-opacity:1;fill-rule:nonzero;stroke:#000000;stroke-width:0.1;stroke-opacity:1"
       id="path929" /><path
       d="m 332.513,398.446 c -12.45407,15.60735 3.0922,47.1456 23.61426,41.62961 20.81688,-13.68597 16.27994,-49.56588 -7.44726,-57.06206 -2.95378,3.17509 20.76784,9.01923 16.71079,22.4676 8.17259,22.44165 -25.82554,50.30043 -31.89065,17.74954 -1.7562,-8.13201 -1.5452,-16.53405 -0.98714,-24.78469 z"
       style="fill:none;fill-opacity:1;fill-rule:nonzero;stroke:#000000;stroke-width:0.1;stroke-opacity:1"
       id="path931" /><path
       d="m 328.698,395.109 c 2.24726,-19.01301 38.9488,-5.27637 37.96092,-13.20815 -13.38865,-3.46221 -32.80008,-2.31697 -37.96092,13.20815 z"
       style="fill:none;fill-opacity:1;fill-rule:nonzero;stroke:#000000;stroke-width:0.1;stroke-opacity:1"
       id="path933" /><path
       d="m 368.421,374.803 c -5.63766,13.89157 26.24109,34.82425 21.83092,33.18353 -15.02556,-4.47322 -7.20861,-28.02139 -21.83092,-33.18353 z"
       style="fill:none;fill-opacity:1;fill-rule:nonzero;stroke:#000000;stroke-width:0.1;stroke-opacity:1"
       id="path935" /><path
       d="m 350.837,365.467 c -11.01891,11.33953 -15.68722,-1.22321 -0.532,0.021"
       style="fill:none;fill-opacity:1;fill-rule:nonzero;stroke:#000000;stroke-width:0.1;stroke-opacity:1"
       id="path937" /><path
       d="m 362.533,447.268 c 9.51348,-4.71982 -5.95535,-20.71609 0.1938,-4.68408 -0.51169,1.35107 -2.30142,3.57157 -0.1938,4.68408 z"
       style="fill:none;fill-opacity:1;fill-rule:nonzero;stroke:#000000;stroke-width:0.1;stroke-opacity:1"
       id="path939" /><path
       d="m 368.042,445.121 c 8.89258,-5.99694 -8.86829,-20.9246 -0.9645,-5.18582 -0.23747,1.56399 -1.86554,4.70527 0.9645,5.18582 z"
       style="fill:none;fill-opacity:1;fill-rule:nonzero;stroke:#000000;stroke-width:0.1;stroke-opacity:1"
       id="path941" /><path
       d="m 367.245,430.221 c 5.73515,-6.45643 8.00677,-36.70193 0.90624,-13.49907 -0.77622,4.45347 -0.95876,8.98675 -0.90624,13.49907 z"
       style="fill:none;fill-opacity:1;fill-rule:nonzero;stroke:#000000;stroke-width:0.1;stroke-opacity:1"
       id="path943" /><path
       d="m 227.195,318.99 c 8.29576,18.0082 42.99717,-5.29626 41.44992,-5.86661 -10.98108,9.9885 -28.11855,12.26262 -41.44992,5.86661 z"
       style="fill:none;fill-opacity:1;fill-rule:nonzero;stroke:#000000;stroke-width:0.1;stroke-opacity:1"
       id="path945" /><path
       d="m 227.205,319.239 c 2.71221,12.73425 13.97897,9.01443 0,0 z"
       style="fill:none;fill-opacity:1;fill-rule:nonzero;stroke:#000000;stroke-width:0.1;stroke-opacity:1"
       id="path947" /><path
       d="m 208.983,320.71 c 5.52924,10.9646 34.2791,7.88724 9.09447,3.79413 -3.053,-1.214 -6.01903,-2.6348 -9.09447,-3.79413 z"
       style="fill:none;fill-opacity:1;fill-rule:nonzero;stroke:#000000;stroke-width:0.1;stroke-opacity:1"
       id="path949" /><path
       d="m 208.985,320.734 c -3.48022,9.65412 17.6621,23.60545 4.11397,8.08112 l -1.86377,-4.14276 z"
       style="fill:none;fill-opacity:1;fill-rule:nonzero;stroke:#000000;stroke-width:0.1;stroke-opacity:1"
       id="path951" /><path
       d="m 200.494,324.422 c 0.1134,11.9752 27.51599,17.82974 6.64536,6.54005 -2.33906,-2.05013 -4.5204,-4.27154 -6.64536,-6.54005 z"
       style="fill:none;fill-opacity:1;fill-rule:nonzero;stroke:#000000;stroke-width:0.1;stroke-opacity:1"
       id="path953" /><path
       d="m 200.425,324.824 c -3.50696,10.42063 18.63804,25.97459 4.14967,8.72294 l -1.78808,-4.50588 z"
       style="fill:none;fill-opacity:1;fill-rule:nonzero;stroke:#000000;stroke-width:0.1;stroke-opacity:1"
       id="path955" /><path
       d="m 189.786,334.282 c 2.67212,10.73168 29.36006,11.55102 7.91163,5.15491 l -3.82913,-2.78372 z"
       style="fill:none;fill-opacity:1;fill-rule:nonzero;stroke:#000000;stroke-width:0.1;stroke-opacity:1"
       id="path957" /><path
       d="m 189.65,334.388 c -4.98226,12.86585 24.43854,34.80855 5.24205,12.22375 -1.92895,-3.99609 -3.45626,-8.16525 -5.24205,-12.22375 z"
       style="fill:none;fill-opacity:1;fill-rule:nonzero;stroke:#000000;stroke-width:0.1;stroke-opacity:1"
       id="path959" /><path
       d="m 183.059,349.78 c 2.25972,10.97428 29.10114,9.97712 7.75107,4.97006 l -3.78069,-2.64085 z"
       style="fill:none;fill-opacity:1;fill-rule:nonzero;stroke:#000000;stroke-width:0.1;stroke-opacity:1"
       id="path961" /><path
       d="m 183.117,350.141 c 1.98349,14.2818 24.64766,36.85839 28.86574,36.59706 C 203.69333,373.48304 187.70931,365.81778 183.117,350.141 Z"
       style="fill:none;fill-opacity:1;fill-rule:nonzero;stroke:#000000;stroke-width:0.1;stroke-opacity:1"
       id="path963" /><path
       d="m 214.874,393.19 c -1.26907,34.88047 20.69082,71.90024 55.6215,80.99015 -30.99941,-12.20072 -54.56581,-43.82219 -53.89727,-77.54064 z"
       style="fill:none;fill-opacity:1;fill-rule:nonzero;stroke:#000000;stroke-width:0.1;stroke-opacity:1"
       id="path965" /><path
       d="m 265.77,472.078 c 14.25031,2.7116 20.68654,32.19454 25.70083,31.78423 C 288.12143,490.23307 278.87004,477.67219 265.77,472.078 Z"
       style="fill:none;fill-opacity:1;fill-rule:nonzero;stroke:#000000;stroke-width:0.1;stroke-opacity:1"
       id="path967" /><path
       d="m 292.04,515.546 c 7.00783,-8.06521 3.15708,-45.07213 1.94128,-17.16165 -0.78311,5.70214 -1.80671,11.39334 -1.94128,17.16165 z"
       style="fill:none;fill-opacity:1;fill-rule:nonzero;stroke:#000000;stroke-width:0.1;stroke-opacity:1"
       id="path969" /><path
       d="m 296.019,484.522 c 14.09842,4.94425 9.29497,38.45019 14.28154,37.85282 1.31958,-13.78204 -2.3989,-29.47092 -14.28154,-37.85282 z"
       style="fill:none;fill-opacity:1;fill-rule:nonzero;stroke:#000000;stroke-width:0.1;stroke-opacity:1"
       id="path971" /><path
       d="m 307.108,533.886 c 15.70832,-5.10103 12.69235,-47.07744 10.77124,-44.08731 2.38711,15.44457 -3.36887,30.80075 -10.77124,44.08731 z"
       style="fill:none;fill-opacity:1;fill-rule:nonzero;stroke:#000000;stroke-width:0.1;stroke-opacity:1"
       id="path973" /><path
       d="m 318.504,487.83 c 1.18692,12.73206 30.65766,19.64491 7.38397,7.02443 -2.54571,-2.25237 -4.90431,-4.70195 -7.38397,-7.02443 z"
       style="fill:none;fill-opacity:1;fill-rule:nonzero;stroke:#000000;stroke-width:0.1;stroke-opacity:1"
       id="path975" /><path
       d="m 340.888,504.544 c -10.45027,-7.46036 -11.7075,-22.85632 -17.23446,-32.4036 0.66882,12.54497 6.33061,25.5075 17.23446,32.4036 z"
       style="fill:none;fill-opacity:1;fill-rule:nonzero;stroke:#000000;stroke-width:0.1;stroke-opacity:1"
       id="path977" /><path
       d="m 324.805,476.304 c 0.93478,10.55796 21.71164,16.96379 5.11048,5.17739 -1.45327,-1.97558 -3.28566,-3.5598 -5.11048,-5.17739 z"
       style="fill:none;fill-opacity:1;fill-rule:nonzero;stroke:#000000;stroke-width:0.1;stroke-opacity:1"
       id="path979" /><path
       d="m 339.861,491.28 c -7.82292,-4.35892 -8.97968,-38.82549 -9.29466,-15.53072 1.19531,5.99918 4.10129,12.00237 9.29466,15.53072 z"
       style="fill:none;fill-opacity:1;fill-rule:nonzero;stroke:#000000;stroke-width:0.1;stroke-opacity:1"
       id="path981" /><path
       d="m 333.565,464.166 c 8.93743,8.62105 30.03337,-10.20611 8.95725,-0.4136 -2.98477,0.17389 -5.98597,0.006 -8.95725,0.4136 z"
       style="fill:none;fill-opacity:1;fill-rule:nonzero;stroke:#000000;stroke-width:0.1;stroke-opacity:1"
       id="path983" /><path
       d="m 332.206,474.749 c 16.63714,-8.24273 29.74809,-25.80362 34.67018,-43.36939 -5.97528,18.18667 -21.92124,30.09947 -34.67018,43.36939 z"
       style="fill:none;fill-opacity:1;fill-rule:nonzero;stroke:#000000;stroke-width:0.1;stroke-opacity:1"
       id="path985" /><path
       d="m 248.126,400.023 c -7.01689,9.27918 2.75661,23.48391 -0.28587,5.31957 0.42416,-1.74315 0.18805,-3.54735 0.28587,-5.31957 z"
       style="fill:none;fill-opacity:1;fill-rule:nonzero;stroke:#000000;stroke-width:0.1;stroke-opacity:1"
       id="path987" /><path
       d="m 326.415,410.755 c -6.78941,8.49798 9.67574,28.7427 0.99876,8.99918 l -0.33409,-4.52173 z"
       style="fill:none;fill-opacity:1;fill-rule:nonzero;stroke:#000000;stroke-width:0.1;stroke-opacity:1"
       id="path989" /><path
       d="m 162.028,491.673 c 23.11931,-11.17487 6.81432,-39.04104 13.4298,-57.83949 2.169,-16.09064 31.61624,-15.94962 33.70502,-19.47067 -30.04449,-6.04175 -48.20365,30.85741 -35.90587,55.09923 -0.27066,8.49926 -3.65331,17.61473 -11.22895,22.21093 z"
       style="fill:none;fill-opacity:1;fill-rule:nonzero;stroke:#000000;stroke-width:0.1;stroke-opacity:1"
       id="path991" /><path
       d="m 173.457,471.138 c -23.40722,8.16032 -32.05315,42.54387 -7.34596,54.99928 24.4603,17.98503 58.42229,9.78042 80.87281,-7.50363 16.02741,-12.56273 -17.06356,9.53801 -23.98739,9.98909 -22.83408,8.85204 -54.89483,5.68285 -67.07465,-18.2757 -6.20163,-15.22482 4.41944,-31.75733 17.53519,-39.20904 z"
       style="fill:none;fill-opacity:1;fill-rule:nonzero;stroke:#000000;stroke-width:0.1;stroke-opacity:1"
       id="path993" /><path
       d="m 233.101,494.462 c -15.01429,-12.07789 -26.24796,15.71511 -5.36959,12.34613 9.20153,3.32606 41.80512,-11.6974 16.8626,-3.87893 -10.08141,6.75913 -42.58274,-9.90125 -14.79734,-7.72757 1.10144,-0.24655 2.20289,-0.49309 3.30433,-0.73963 z"
       style="fill:none;fill-opacity:1;fill-rule:nonzero;stroke:#000000;stroke-width:0.1;stroke-opacity:1"
       id="path995" /><path
       d="m 268.732,473.307 c -18.02558,14.5073 -12.14831,65.09167 16.73995,52.12203 7.42737,-5.74299 12.353,-16.84421 2.37818,-4.28504 C 258.59046,535.34068 254.89926,488.18307 268.732,473.307 Z"
       style="fill:none;fill-opacity:1;fill-rule:nonzero;stroke:#000000;stroke-width:0.1;stroke-opacity:1"
       id="path997" /><path
       d="m 291.325,518.886 c -7.05694,21.31397 32.86983,-1.91702 9.08643,7.85996 -4.56693,0.45486 -8.80225,-3.31085 -9.08643,-7.85996 z"
       style="fill:none;fill-opacity:1;fill-rule:nonzero;stroke:#000000;stroke-width:0.1;stroke-opacity:1"
       id="path999" /><path
       d="m 316.96,518.599 c 15.07246,18.71567 34.33482,44.44756 61.7877,38.389 22.51484,0.80975 14.89557,-44.68356 14.14215,-38.19061 10.40749,27.55151 -30.1173,50.27293 -48.14615,26.60773 C 334.92497,537.049 327.61505,526.01722 316.96,518.599 Z"
       style="fill:none;fill-opacity:1;fill-rule:nonzero;stroke:#000000;stroke-width:0.1;stroke-opacity:1"
       id="path1001" /><path
       d="m 382.683,515.778 c -8.70831,12.24615 -28.4036,-6.59458 -6.46436,-1.97449 25.90898,5.90857 48.58533,-29.19307 29.73865,-49.21353 -6.18075,-18.26133 -47.59148,-13.32204 -44.50615,-10.09451 24.64318,-8.63498 54.62256,12.00312 47.24771,39.12459 -3.82857,21.77343 -44.67451,8.45344 -43.81154,26.79763 5.98183,1.70992 13.16949,-0.7232 17.79569,-4.63969 z"
       style="fill:none;fill-opacity:1;fill-rule:nonzero;stroke:#000000;stroke-width:0.1;stroke-opacity:1"
       id="path1003" /><path
       d="m 255.948,323.858 c 23.31472,-11.55859 39.07828,-40.43346 68.05271,-38.39807 14.16251,-5.99376 25.40708,28.67381 28.70277,21.44403 -10.35822,-25.01341 -48.65754,-31.74321 -65.30485,-9.45544 -10.50313,8.77742 -20.01172,18.79211 -31.45063,26.40948 z"
       style="fill:none;fill-opacity:1;fill-rule:nonzero;stroke:#000000;stroke-width:0.1;stroke-opacity:1"
       id="path1005" /><path
       d="m 353.079,312.088 c 2.4749,21.63736 28.03547,31.63519 47.11205,32.52371 -3.56577,-0.11523 -32.00839,-5.57739 -38.27456,-19.81697 -3.32918,-3.95138 -6.27658,-8.22054 -8.83749,-12.70674 z"
       style="fill:none;fill-opacity:1;fill-rule:nonzero;stroke:#000000;stroke-width:0.1;stroke-opacity:1"
       id="path1007" /><path
       d="m 392.546,351.308 c 11.89718,0.81637 20.41613,-14.60416 5.1095,-2.83834 -1.881,0.60014 -3.41786,1.86761 -5.1095,2.83834 z"
       style="fill:none;fill-opacity:1;fill-rule:nonzero;stroke:#000000;stroke-width:0.1;stroke-opacity:1"
       id="path1009" /><path
       d="m 398.87,349.72 c 8.52002,4.07648 20.45073,-8.09867 5.71702,-1.09189 -1.31874,0.0479 -5.37893,-1.81156 -5.71702,1.09189 z"
       style="fill:none;fill-opacity:1;fill-rule:nonzero;stroke:#000000;stroke-width:0.1;stroke-opacity:1"
       id="path1011" /><path
       d="m 415.849,344.668 c -9.39754,6.41047 -9.79981,15.36041 -0.54627,3.5509 1.05584,-0.55866 2.06309,-2.81547 0.54627,-3.5509 z"
       style="fill:none;fill-opacity:1;fill-rule:nonzero;stroke:#000000;stroke-width:0.1;stroke-opacity:1"
       id="path1013" /><path
       d="m 404.638,357.303 c 8.81796,-4.76259 21.31443,-7.94839 8.68917,3.45463 -21.09923,18.62217 17.9243,-4.25975 5.53626,-13.26309 -5.33312,2.97629 -8.10642,7.94247 -14.22543,9.80846 z"
       style="fill:none;fill-opacity:1;fill-rule:nonzero;stroke:#000000;stroke-width:0.1;stroke-opacity:1"
       id="path1015" /><path
       d="m 411.244,365.113 c 16.31345,-11.434 -12.83301,15.62653 3.08198,1.89557 8.64968,-6.47676 12.00431,-12.48025 -3.08198,-1.89557 z"
       style="fill:none;fill-opacity:1;fill-rule:nonzero;stroke:#000000;stroke-width:0.1;stroke-opacity:1"
       id="path1017" /><path
       d="m 414.498,368.189 c 4.85056,-0.4023 -15.03063,16.92387 -0.286,6.035 6.60704,-0.99902 6.78345,-17.27944 0.286,-6.035 z"
       style="fill:none;fill-opacity:1;fill-rule:nonzero;stroke:#000000;stroke-width:0.1;stroke-opacity:1"
       id="path1019" /><path
       d="m 274.209,355.599 c 21.37816,-13.37102 29.08242,-46.73668 57.72553,-48.01967 9.49443,4.89431 5.27236,41.00835 9.62543,15.18128 -6.5148,-31.29633 -47.70325,-8.21392 -51.6343,13.43056 -5.18477,6.51264 -10.34243,13.04929 -15.71666,19.40783 z"
       style="fill:none;fill-opacity:1;fill-rule:nonzero;stroke:#000000;stroke-width:0.1;stroke-opacity:1"
       id="path1021" /><path
       d="m 314.728,343.922 c 12.89193,-1.58006 27.56553,-36.97619 11.93791,-12.9305 -3.83664,4.44035 -7.97162,8.60842 -11.93791,12.9305 z"
       style="fill:none;fill-opacity:1;fill-rule:nonzero;stroke:#000000;stroke-width:0.1;stroke-opacity:1"
       id="path1023" /><path
       d="m 317.048,328.122 c -8.99196,8.45663 -7.63808,19.76154 -0.55509,3.8707 l 0.57194,-1.89309 z"
       style="fill:none;fill-opacity:1;fill-rule:nonzero;stroke:#000000;stroke-width:0.1;stroke-opacity:1"
       id="path1025" /><path
       d="m 245.944,365.848 c 4.68483,-14.54347 24.5052,2.86871 0.822,-0.20402"
       style="fill:none;fill-opacity:1;fill-rule:nonzero;stroke:#000000;stroke-width:0.1;stroke-opacity:1"
       id="path1027" /><path
       d="m 265.463,377.44 c 9.3473,-9.14638 42.7822,8.40857 17.13072,-4.37866 -5.97121,-0.85073 -12.41956,0.47793 -17.13072,4.37866 z"
       style="fill:none;fill-opacity:1;fill-rule:nonzero;stroke:#000000;stroke-width:0.1;stroke-opacity:1"
       id="path1029" /><path
       d="m 367.811,377.407 c 10.41149,19.25346 12.72388,3.36263 0,0 z"
       style="fill:none;fill-opacity:1;fill-rule:nonzero;stroke:#000000;stroke-width:0.1;stroke-opacity:1"
       id="path1031" /><path
       d="m 317.224,303.805 c 6.55146,-9.60012 31.42758,14.04987 16.43565,-1.87752 -5.26296,-2.21741 -11.99314,-2.10872 -16.43565,1.87752 z"
       style="fill:none;fill-opacity:1;fill-rule:nonzero;stroke:#000000;stroke-width:0.1;stroke-opacity:1"
       id="path1033" /><path
       d="m 342.237,330.147 c -5.89928,11.83891 4.43392,16.02523 0,0 z"
       style="fill:none;fill-opacity:1;fill-rule:nonzero;stroke:#000000;stroke-width:0.1;stroke-opacity:1"
       id="path1035" /><path
       d="m 258.303,351.505 c 12.50547,-2.70717 28.74753,-25.683 27.29094,-29.22503 -7.78818,10.8301 -16.12758,21.65496 -27.29094,29.22503 z"
       style="fill:none;fill-opacity:1;fill-rule:nonzero;stroke:#000000;stroke-width:0.1;stroke-opacity:1"
       id="path1037" /><path
       d="m 260.113,319.98 c 13.02538,-3.42624 23.60806,-38.81075 21.28586,-39.29065 -2.97572,14.94066 -12.79422,27.10591 -21.28586,39.29065 z"
       style="fill:none;fill-opacity:1;fill-rule:nonzero;stroke:#000000;stroke-width:0.1;stroke-opacity:1"
       id="path1039" /><path
       d="m 187.333,339.237 c -13.77073,14.13681 -8.19167,27.89882 -8.31334,20.31654 -1.39098,-1.93154 7.41844,-14.56071 8.31334,-20.31654 z"
       style="fill:none;fill-opacity:1;fill-rule:nonzero;stroke:#000000;stroke-width:0.1;stroke-opacity:1"
       id="path1041" /><path
       d="m 185.928,351.894 c 7.24977,-3.21129 2.28655,-10.10575 0,0 z"
       style="fill:none;fill-opacity:1;fill-rule:nonzero;stroke:#000000;stroke-width:0.1;stroke-opacity:1"
       id="path1043" /><path
       d="m 197.451,339.471 c 7.41627,-2.71602 2.89261,-9.85027 0,0 z"
       style="fill:none;fill-opacity:1;fill-rule:nonzero;stroke:#000000;stroke-width:0.1;stroke-opacity:1"
       id="path1045" /><path
       d="m 207.149,330.786 c 7.41692,-1.44756 1.88383,-9.8079 0,0 z"
       style="fill:none;fill-opacity:1;fill-rule:nonzero;stroke:#000000;stroke-width:0.1;stroke-opacity:1"
       id="path1047" /><path
       d="m 214.529,323.81 c 18.05244,-16.36029 36.68128,-40.04025 63.88095,-36.98149 -25.84634,-8.59085 -45.71708,18.04725 -61.87352,34.03529 z"
       style="fill:none;fill-opacity:1;fill-rule:nonzero;stroke:#000000;stroke-width:0.1;stroke-opacity:1"
       id="path1049" /><path
       d="m 186.893,339.22 c -14.93306,11.19148 -41.46482,42.16405 -43.27478,46.4938 15.97177,-14.01371 28.07797,-31.72108 43.27478,-46.4938 z"
       style="fill:none;fill-opacity:1;fill-rule:nonzero;stroke:#000000;stroke-width:0.1;stroke-opacity:1"
       id="path1051" /><path
       d="m 136.501,392.074 c 13.65047,-36.19184 42.65451,-63.03404 68.233,-90.881 -28.93369,24.59594 -58.75317,52.64225 -68.233,90.881 z"
       style="fill:none;fill-opacity:1;fill-rule:nonzero;stroke:#000000;stroke-width:0.1;stroke-opacity:1"
       id="path1053" /><path
       d="m 183.963,319.791 c -15.80603,10.62203 -35.53058,15.81988 -49.31165,29.10932 C 152.83203,342.587 169.0005,331.68904 183.963,319.791 Z"
       style="fill:none;fill-opacity:1;fill-rule:nonzero;stroke:#000000;stroke-width:0.1;stroke-opacity:1"
       id="path1055" /><path
       d="m 126.547,350.688 c 18.80715,-27.91209 46.02689,-49.50836 76.201,-64.041 -32.29786,10.48855 -61.10059,33.32237 -76.201,64.041 z"
       style="fill:none;fill-opacity:1;fill-rule:nonzero;stroke:#000000;stroke-width:0.1;stroke-opacity:1"
       id="path1057" /><path
       d="m 177.924,297.676 c -10.05904,0.57168 -44.0833,7.78238 -16.04616,6.06495 5.68425,-0.85336 11.38744,-2.59008 16.04616,-6.06495 z"
       style="fill:none;fill-opacity:1;fill-rule:nonzero;stroke:#000000;stroke-width:0.1;stroke-opacity:1"
       id="path1059" /><path
       d="m 143.154,303.586 c 19.45103,-16.59668 43.19445,-27.50175 67.728,-34.203 -25.76533,2.26747 -51.10129,14.09804 -67.728,34.203 z"
       style="fill:none;fill-opacity:1;fill-rule:nonzero;stroke:#000000;stroke-width:0.1;stroke-opacity:1"
       id="path1061" /><path
       d="m 196.717,272.064 c -7.51304,-0.9546 -40.75713,5.87943 -17.54672,5.32064 6.10498,-0.58015 12.33774,-1.91407 17.54672,-5.32064 z"
       style="fill:none;fill-opacity:1;fill-rule:nonzero;stroke:#000000;stroke-width:0.1;stroke-opacity:1"
       id="path1063" /><path
       d="m 163.689,276.597 c 13.39229,-14.49171 54.43573,-21.11811 57.5873,-25.38398 -21.31876,1.37335 -42.71838,9.70899 -57.5873,25.38398 z"
       style="fill:none;fill-opacity:1;fill-rule:nonzero;stroke:#000000;stroke-width:0.1;stroke-opacity:1"
       id="path1065" /><path
       d="m 208.502,253.892 c -11.75016,0.88789 -32.79018,-0.11934 -9.84157,-6.86119 9.25551,-2.55403 47.81422,-7.78837 18.01658,-6.5105 -10.58028,-0.76404 -37.09569,8.50758 -32.1169,15.51892 8.00472,0.28048 16.27923,0.61634 23.94189,-2.14723 z"
       style="fill:none;fill-opacity:1;fill-rule:nonzero;stroke:#000000;stroke-width:0.1;stroke-opacity:1"
       id="path1067" /><path
       d="m 222.79,240.627 c -22.11461,-1.83618 25.61004,-8.46073 1.46995,-8.4413 -12.50965,-1.46878 -18.70255,15.55421 -1.46995,8.4413 z"
       style="fill:none;fill-opacity:1;fill-rule:nonzero;stroke:#000000;stroke-width:0.1;stroke-opacity:1"
       id="path1069" /><path
       d="m 230.195,268.27 c -7.43007,0.85064 -27.04984,0.72187 -9.96491,-4.83163 26.32791,-9.73841 -21.35368,-2.93206 -7.8761,7.88528 6.07453,0.60479 12.28525,-0.56985 17.84101,-3.05365 z"
       style="fill:none;fill-opacity:1;fill-rule:nonzero;stroke:#000000;stroke-width:0.1;stroke-opacity:1"
       id="path1071" /><path
       d="m 233.829,287.722 c -7.7516,7.93431 -37.30095,10.70637 -15.0704,-2.14908 25.36134,-16.75198 -27.99516,3.16833 -6.61906,14.29377 8.07681,-1.31508 15.50003,-6.96576 21.68946,-12.14469 z"
       style="fill:none;fill-opacity:1;fill-rule:nonzero;stroke:#000000;stroke-width:0.1;stroke-opacity:1"
       id="path1073" /><path
       d="m 338.647,290.668 c -0.58702,-9.35451 -21.77474,-23.77763 -7.63984,-7.04742 2.04788,2.76822 4.04275,6.12389 7.63984,7.04742 z"
       style="fill:none;fill-opacity:1;fill-rule:nonzero;stroke:#000000;stroke-width:0.1;stroke-opacity:1"
       id="path1075" /><path
       d="m 338.251,285.151 c -7.74811,-7.69881 13.37394,-44.63441 -0.68337,-23.69757 -3.13435,7.43365 -4.64222,16.81957 0.68337,23.69757 z"
       style="fill:none;fill-opacity:1;fill-rule:nonzero;stroke:#000000;stroke-width:0.1;stroke-opacity:1"
       id="path1077" /><path
       d="m 342.319,295.123 c 24.70945,1.80512 32.44871,29.67794 48.42419,43.73409 C 379.37135,320.9865 367.69699,293.39615 342.319,295.123 Z"
       style="fill:none;fill-opacity:1;fill-rule:nonzero;stroke:#000000;stroke-width:0.1;stroke-opacity:1"
       id="path1079" /><path
       d="m 411.449,375.698 c 1.06711,12.39468 14.05677,15.78458 3.34456,1.77799 -0.1455,-1.36721 -2.07267,-2.96254 -3.34456,-1.77799 z"
       style="fill:none;fill-opacity:1;fill-rule:nonzero;stroke:#000000;stroke-width:0.1;stroke-opacity:1"
       id="path1081" /><path
       d="m 421.134,392.759 c 3.94405,-13.12052 -10.25842,-20.93821 -2.30398,-3.36405 l 0.76741,1.94563 z"
       style="fill:none;fill-opacity:1;fill-rule:nonzero;stroke:#000000;stroke-width:0.1;stroke-opacity:1"
       id="path1083" /><path
       d="m 419.649,362.032 c 15.73371,22.19688 26.87968,47.29263 35.614,72.963 -4.41129,-27.0552 -16.1169,-53.39702 -35.614,-72.963 z"
       style="fill:none;fill-opacity:1;fill-rule:nonzero;stroke:#000000;stroke-width:0.1;stroke-opacity:1"
       id="path1085" /><path
       d="m 454.705,434.074 c 1.23189,-35.50148 -10.60573,-72.16476 -33.06908,-99.56879 -7.83672,-3.02213 14.66783,20.61896 15.31667,28.54012 9.23626,22.65299 15.20601,46.624 17.75241,71.02867 z"
       style="fill:none;fill-opacity:1;fill-rule:nonzero;stroke:#000000;stroke-width:0.1;stroke-opacity:1"
       id="path1087" /><path
       d="m 427.241,341.822 c 15.29062,14.52053 32.35948,50.78153 42.34489,54.85402 -6.78572,-37.31293 -23.70688,-74.72522 -54.66561,-98.01481 26.47743,25.40222 44.44443,59.35579 51.08337,95.40448 C 457.73021,373.6858 442.09038,357.56268 427.241,341.822 Z"
       style="fill:none;fill-opacity:1;fill-rule:nonzero;stroke:#000000;stroke-width:0.1;stroke-opacity:1"
       id="path1089" /><path
       d="m 437.871,322.81 c 4.83659,10.32055 29.29647,25.75236 16.86355,2.76759 -8.90903,-20.96885 -25.58507,-39.71833 -46.52676,-48.99432 22.74084,14.80362 41.02126,37.31821 48.31321,63.68273 -1.12662,-9.91231 -13.5029,-10.62856 -18.65,-17.456 z"
       style="fill:none;fill-opacity:1;fill-rule:nonzero;stroke:#000000;stroke-width:0.1;stroke-opacity:1"
       id="path1091" /><path
       d="m 427.541,290.089 c 8.24467,9.41151 27.10312,9.06596 11.12594,-3.58923 -5.82391,-10.33164 -33.62157,-24.4863 -34.7401,-21.38879 16.36666,6.50947 27.63328,20.66892 41.28016,31.15502 -5.81207,-2.21365 -11.14692,-6.36174 -17.666,-6.177 z"
       style="fill:none;fill-opacity:1;fill-rule:nonzero;stroke:#000000;stroke-width:0.1;stroke-opacity:1"
       id="path1093" /><path
       d="m 415.479,269.61 c 11.98642,10.15068 25.58643,-3.33581 7.77464,-9.20223 -13.44413,-13.63776 -64.43929,-19.63085 -62.98125,-15.9974 25.81035,3.12455 53.15643,8.71583 73.02255,26.7277 -6.06895,0.62861 -11.75168,-3.56483 -17.81594,-1.52807 z"
       style="fill:none;fill-opacity:1;fill-rule:nonzero;stroke:#000000;stroke-width:0.1;stroke-opacity:1"
       id="path1095" /><path
       d="m 354.412,291.094 c 10.52249,-2.32582 36.16999,33.84554 22.66031,11.5539 -5.63202,-6.50638 -13.48334,-12.69242 -22.66031,-11.5539 z"
       style="fill:none;fill-opacity:1;fill-rule:nonzero;stroke:#000000;stroke-width:0.1;stroke-opacity:1"
       id="path1097" /><path
       d="m 383.698,305.058 c -1.57103,14.37799 33.60769,22.641 16.25301,3.92012 -15.4558,-15.01012 0.7595,3.77132 0.77996,10.0518 C 393.1539,316.8636 390.26396,308.65238 383.698,305.058 Z"
       style="fill:none;fill-opacity:1;fill-rule:nonzero;stroke:#000000;stroke-width:0.1;stroke-opacity:1"
       id="path1099" /><path
       d="m 394.147,303.507 c 6.9751,17.72942 20.26433,-12.84056 5.31983,-9.44106 8.82938,6.8319 7.36952,17.43146 -5.31983,9.44106 z"
       style="fill:none;fill-opacity:1;fill-rule:nonzero;stroke:#000000;stroke-width:0.1;stroke-opacity:1"
       id="path1101" /><path
       d="m 385.469,281.787 c 11.10273,4.56521 1.68437,-15.64664 1.29362,-1.19385 l -0.92604,0.28737 z"
       style="fill:none;fill-opacity:1;fill-rule:nonzero;stroke:#000000;stroke-width:0.1;stroke-opacity:1"
       id="path1103" /><path
       d="m 117.017,261.979 c 16.21163,-22.87717 34.18445,-44.4207 51.405,-66.529 -20.70896,19.0482 -39.00999,41.13653 -51.405,66.529 z"
       style="fill:none;fill-opacity:1;fill-rule:nonzero;stroke:#000000;stroke-width:0.1;stroke-opacity:1"
       id="path1105" /><path
       d="m 167.539,195.32 c -5.92502,13.45656 -6.50271,45.5099 -2.09641,48.35817 -0.62815,-16.16423 2.52182,-32.19799 2.09641,-48.35817 z"
       style="fill:none;fill-opacity:1;fill-rule:nonzero;stroke:#000000;stroke-width:0.1;stroke-opacity:1"
       id="path1107" /><path
       d="m 165.788,253.196 c 8.32478,-11.39179 35.55899,-32.18597 33.061,-37.48284 -12.67731,10.84983 -24.93925,22.72664 -33.061,37.48284 z"
       style="fill:none;fill-opacity:1;fill-rule:nonzero;stroke:#000000;stroke-width:0.1;stroke-opacity:1"
       id="path1109" /><path
       d="m 207.315,208.121 c 10.57474,9.34401 27.8999,36.79363 33.31327,35.4853 -9.87251,-12.84182 -19.03076,-27.06532 -33.31327,-35.4853 z"
       style="fill:none;fill-opacity:1;fill-rule:nonzero;stroke:#000000;stroke-width:0.1;stroke-opacity:1"
       id="path1111" /><path
       d="m 246.403,251.894 c 5.7784,-9.81453 27.0131,-26.15587 23.3523,-31.27175 -9.46297,8.98714 -18.15862,19.1734 -23.3523,31.27175 z"
       style="fill:none;fill-opacity:1;fill-rule:nonzero;stroke:#000000;stroke-width:0.1;stroke-opacity:1"
       id="path1113" /><path
       d="m 278.244,214.129 c 2.86825,10.07617 28.40114,42.35327 13.18894,16.02741 -3.70441,-5.858 -7.95568,-11.44305 -13.18894,-16.02741 z"
       style="fill:none;fill-opacity:1;fill-rule:nonzero;stroke:#000000;stroke-width:0.1;stroke-opacity:1"
       id="path1115" /><path
       d="m 301.032,247.447 c 7.5872,-7.07925 23.21867,-44.50064 7.69832,-18.91981 -3.31449,5.96048 -6.14722,12.25372 -7.69832,18.91981 z"
       style="fill:none;fill-opacity:1;fill-rule:nonzero;stroke:#000000;stroke-width:0.1;stroke-opacity:1"
       id="path1117" /><path
       d="m 319.171,213.396 c 5.5664,10.70495 19.92639,34.31288 24.86457,33.45604 C 336.76022,235.00467 328.98431,223.3211 319.171,213.396 Z"
       style="fill:none;fill-opacity:1;fill-rule:nonzero;stroke:#000000;stroke-width:0.1;stroke-opacity:1"
       id="path1119" /><path
       d="m 349.637,253.409 c 2.57457,-8.39297 27.66104,-28.696 18.00361,-26.49929 -7.87094,7.26461 -15.60781,15.71931 -18.00361,26.49929 z"
       style="fill:none;fill-opacity:1;fill-rule:nonzero;stroke:#000000;stroke-width:0.1;stroke-opacity:1"
       id="path1121" /><path
       d="m 376.053,219.5 c 2.7505,9.93094 29.08934,39.75974 13.87995,16.01816 C 386.01144,229.6271 381.55939,223.9978 376.053,219.5 Z"
       style="fill:none;fill-opacity:1;fill-rule:nonzero;stroke:#000000;stroke-width:0.1;stroke-opacity:1"
       id="path1123" /><path
       d="m 399.335,248.517 c 7.48708,-6.99357 26.74495,-37.66502 8.02233,-16.02203 -3.58434,4.80796 -6.54322,10.17778 -8.02233,16.02203 z"
       style="fill:none;fill-opacity:1;fill-rule:nonzero;stroke:#000000;stroke-width:0.1;stroke-opacity:1"
       id="path1125" /><path
       d="m 420.409,219.842 c 19.2662,17.01531 36.72226,36.00017 56.52,52.426 -16.44295,-19.79982 -34.43924,-38.84738 -56.52,-52.426 z"
       style="fill:none;fill-opacity:1;fill-rule:nonzero;stroke:#000000;stroke-width:0.1;stroke-opacity:1"
       id="path1127" /><path
       d="m 423.066,262.493 c 9.67237,-2.57798 15.01977,-26.01834 4.15586,-8.20399 -1.84388,2.2769 -4.52326,4.91265 -4.15586,8.20399 z"
       style="fill:none;fill-opacity:1;fill-rule:nonzero;stroke:#000000;stroke-width:0.1;stroke-opacity:1"
       id="path1129" /><path
       d="m 436.015,245.127 c 6.9131,9.77809 28.9467,26.81309 33.2334,23.41275 -11.03244,-7.86714 -21.81963,-16.09453 -33.2334,-23.41275 z"
       style="fill:none;fill-opacity:1;fill-rule:nonzero;stroke:#000000;stroke-width:0.1;stroke-opacity:1"
       id="path1131" /><path
       d="m 478.923,275.964 c -1.8021,-8.28368 -8.32764,-39.77273 -10.49111,-31.21281 1.8697,10.8371 4.63237,21.7755 10.49111,31.21281 z"
       style="fill:none;fill-opacity:1;fill-rule:nonzero;stroke:#000000;stroke-width:0.1;stroke-opacity:1"
       id="path1133" /><path
       d="m 116.772,261.371 c 11.30747,-6.80986 38.66834,-19.95312 38.28226,-25.2501 -13.72689,6.78376 -27.09331,14.68979 -38.28226,25.2501 z"
       style="fill:none;fill-opacity:1;fill-rule:nonzero;stroke:#000000;stroke-width:0.1;stroke-opacity:1"
       id="path1135" /><path
       d="m 183.329,233.417 c 1.6871,13.26412 16.95486,14.72802 3.47678,1.95746 l -1.49741,-1.40734 z"
       style="fill:none;fill-opacity:1;fill-rule:nonzero;stroke:#000000;stroke-width:0.1;stroke-opacity:1"
       id="path1137" /><path
       d="m 118.221,259.002 c 13.82392,-65.71312 48.9973,-130.70733 107.45282,-166.506704 57.41577,-30.456241 136.34913,-29.171364 184.10919,18.736934 36.2495,35.9333 51.22622,86.66575 61.93456,135.16826 C 463.38282,190.81274 442.76203,132.21878 397.03721,96.380957 342.38727,56.344889 262.60914,61.721315 208.47135,100.00822 172.3211,126.6318 148.81309,167.14739 131.51792,207.79159 125.11046,224.26328 120.47584,241.45911 118.221,259.002 Z"
       style="fill:none;fill-opacity:1;fill-rule:nonzero;stroke:#000000;stroke-width:0.1;stroke-opacity:1"
       id="path1139" /><path
       d="m 274.552,400.114 c -14.9487,8.07067 14.4759,7.87093 0,0 z m 5.194,14.915 c -26.50154,-0.65997 6.9808,-39.35909 11.11826,-12.84256 1.05472,6.40566 -4.58158,13.18738 -11.11826,12.84256 z"
       style="fill:none;fill-opacity:1;fill-rule:nonzero;stroke:#000000;stroke-width:0.1;stroke-opacity:1"
       id="path1141" /><path
       d="m 344.864,405.707 c -14.94766,8.0708 14.47532,7.87133 0,0 z m 5.194,14.915 c -26.50137,-0.66011 6.98068,-39.35895 11.11824,-12.8426 1.05455,6.40567 -4.58168,13.18702 -11.11824,12.8426 z"
       style="fill:none;fill-opacity:1;fill-rule:nonzero;stroke:#000000;stroke-width:0.1;stroke-opacity:1"
       id="path1143" /></g></svg>
